<svg xmlns="http://www.w3.org/2000/svg" xmlns:xlink="http://www.w3.org/1999/xlink" version="1.1" x="0px" y="0px" viewBox="0 0 100 125" enable-background="new 0 0 100 100" xml:space="preserve"><g><path d="M77.548,70.53c-0.106-0.451-0.509-0.77-0.973-0.77c-5.396,0-11.519-6.24-17.706-18.046   c-4.693-8.955-7.773-18.038-7.915-18.46c-0.012-0.037-0.026-0.074-0.042-0.109c-0.007-0.015-0.022-0.024-0.029-0.039   c-0.049-0.096-0.116-0.176-0.191-0.251c-0.021-0.021-0.032-0.053-0.054-0.071h0c-0.005-0.004-0.011-0.005-0.016-0.009   c-0.041-0.033-0.091-0.05-0.137-0.076c-0.055-0.031-0.104-0.071-0.166-0.092c-0.01-0.003-0.021-0.004-0.031-0.007   c-0.019-0.006-0.039-0.008-0.059-0.013c-0.113-0.027-0.23-0.039-0.351-0.024c-0.002,0-0.003-0.001-0.005,0c0,0-0.001,0-0.001,0   c-0.001,0-0.002,0-0.003,0c0,0,0,0,0,0h0c-0.082,0.011-0.162,0.032-0.238,0.062c-0.021,0.008-0.033,0.028-0.053,0.038   c-0.096,0.046-0.177,0.107-0.252,0.179c-0.023,0.022-0.057,0.031-0.078,0.055c-0.007,0.008-0.01,0.02-0.017,0.028   c-0.028,0.034-0.044,0.074-0.068,0.112c-0.031,0.051-0.07,0.096-0.092,0.153c-0.007,0.019-0.014,0.038-0.021,0.057   c-0.112,0.333-3.2,9.464-7.917,18.466C34.944,63.52,28.821,69.76,23.425,69.76c-0.464,0-0.867,0.319-0.973,0.77   c-0.106,0.452,0.111,0.917,0.526,1.125c0.312,0.156,5.65,2.779,14.365,4.318c0.053,0.014,0.108,0.023,0.165,0.029   c3.626,0.631,7.83,1.073,12.493,1.073c15.997,0,26.579-5.199,27.022-5.42C77.437,71.447,77.654,70.982,77.548,70.53z M37.74,73.995   c-4.734-0.841-8.462-2.008-10.854-2.888c8.981-3.351,16.703-18.845,20.844-28.775C44.583,61.984,40.422,73.595,37.74,73.995z    M40.491,74.427c1.95-2.269,4.314-7.631,6.944-19.938c1.092-5.107,1.972-10.244,2.585-14.138c0.641,3.859,1.576,8.938,2.772,13.986   c2.514,10.603,5.205,17.168,8.156,19.877c-3.253,0.514-6.933,0.861-10.947,0.861C46.567,75.075,43.377,74.821,40.491,74.427z    M64.049,73.652c-1.511-0.114-5.193-2.413-9.309-19.763c-0.917-3.866-1.678-7.751-2.27-11.084   c4.186,9.943,11.804,25.003,20.644,28.302C71.032,71.872,67.937,72.856,64.049,73.652z"/><polygon points="50,22.925 50,30.012 60.63,26.468  "/></g></svg>
