<svg xmlns="http://www.w3.org/2000/svg" xmlns:xlink="http://www.w3.org/1999/xlink" version="1.1" x="0px" y="0px" viewBox="0 0 100 125" enable-background="new 0 0 100 100" xml:space="preserve"><path d="M83.125,49.987c0-13.687-8.597-26.139-21.392-30.987c-0.772-0.293-1.641,0.097-1.934,0.872  c-0.294,0.774,0.097,1.641,0.871,1.934c11.636,4.409,19.454,15.734,19.454,28.181c0,15.488-11.75,28.278-26.803,29.938l2.106-2.605  c0.521-0.645,0.421-1.589-0.223-2.11c-0.645-0.521-1.59-0.421-2.109,0.223l-4.104,5.074c-0.268,0.244-0.442,0.581-0.479,0.962  c-0.004,0.028-0.007,0.056-0.009,0.084c-0.001,0.02-0.006,0.039-0.006,0.059c0,0.024,0.006,0.047,0.007,0.071  c0.002,0.077,0.01,0.153,0.023,0.229c0,0.001,0.001,0.002,0.001,0.004c0.063,0.341,0.235,0.663,0.525,0.897l5.271,4.263  c0.277,0.225,0.611,0.334,0.942,0.334c0.438,0,0.871-0.19,1.167-0.557c0.521-0.644,0.422-1.588-0.223-2.109l-2.312-1.87  C70.334,80.936,83.125,66.931,83.125,49.987z M51.17,19.291c0.056-0.071,0.104-0.146,0.147-0.226  c0.008-0.014,0.016-0.027,0.022-0.041c0.032-0.066,0.06-0.135,0.082-0.207c0.01-0.028,0.019-0.056,0.026-0.084  c0.015-0.056,0.023-0.113,0.031-0.172c0.007-0.046,0.013-0.092,0.015-0.138c0.001-0.021,0.006-0.04,0.006-0.061  c0-0.025-0.006-0.049-0.008-0.074c-0.002-0.059-0.008-0.116-0.018-0.174c-0.006-0.036-0.013-0.071-0.021-0.105  c-0.016-0.065-0.035-0.129-0.06-0.192c-0.009-0.023-0.019-0.046-0.028-0.069c-0.031-0.07-0.068-0.138-0.111-0.204  c-0.008-0.012-0.015-0.023-0.023-0.035c-0.048-0.07-0.103-0.136-0.163-0.198c-0.005-0.005-0.011-0.011-0.016-0.016  c-0.036-0.036-0.068-0.074-0.108-0.107l-5.271-4.263c-0.644-0.521-1.59-0.42-2.109,0.223c-0.521,0.644-0.422,1.588,0.223,2.109  l2.284,1.848c-16.419,1.951-29.195,15.949-29.195,32.884c0,13.782,8.678,26.265,21.593,31.063c0.173,0.064,0.349,0.094,0.522,0.094  c0.608,0,1.182-0.374,1.406-0.978c0.288-0.777-0.107-1.64-0.884-1.929c-11.746-4.362-19.638-15.715-19.638-28.25  c0-15.496,11.762-28.292,26.826-29.941l-2.13,2.634c-0.521,0.645-0.421,1.589,0.223,2.11c0.277,0.224,0.611,0.333,0.942,0.333  c0.438,0,0.871-0.19,1.167-0.557l4.263-5.271C51.167,19.294,51.168,19.292,51.17,19.291z"/></svg>
